<!DOCTYPE svg PUBLIC "-//W3C//DTD SVG 20010904//EN" "http://www.w3.org/TR/2001/REC-SVG-20010904/DTD/svg10.dtd">
<svg version="1.0" xmlns="http://www.w3.org/2000/svg" width="960px" height="652px" viewBox="0 0 9600 6520" preserveAspectRatio="xMidYMid meet">
<g id="layer1" fill="#fafafa" stroke="none">
 <path d="M6620 4869 c-19 -5 -72 -6 -118 -2 -117 8 -180 -12 -261 -84 -52 -46 -61 -60 -61 -88 0 -44 24 -67 64 -63 39 4 39 21 1 28 -30 5 -42 25 -27 46 4 6 42 34 84 62 l77 52 90 0 c129 0 232 24 215 51 -6 10 -16 10 -64 -2z"/>
 <path d="M1857 4854 c-57 -21 -121 -86 -136 -140 -21 -77 -15 -127 54 -459 19 -93 37 -176 40 -183 3 -9 24 -12 72 -10 l68 3 3 34 c2 18 -8 83 -22 145 -41 177 -66 317 -66 369 0 42 5 53 39 89 37 40 40 41 97 39 52 -2 64 -7 110 -44 44 -36 54 -51 69 -102 20 -71 72 -313 87 -405 6 -36 17 -80 25 -97 14 -32 15 -33 79 -33 46 0 66 4 70 14 5 12 -8 81 -50 286 -5 26 -13 61 -47 215 -23 102 -51 156 -106 206 -66 60 -115 78 -233 84 -83 4 -115 2 -153 -11z"/>
 <path d="M5520 4861 c-88 -13 -167 -76 -207 -167 -22 -51 -22 -224 0 -307 65 -236 277 -367 537 -333 112 15 130 25 130 77 0 22 -5 49 -11 60 -11 22 -38 21 -141 -3 -38 -9 -60 -8 -122 7 -120 28 -184 85 -231 206 -48 122 -26 270 47 313 30 18 118 24 160 10 59 -18 118 -90 118 -143 0 -18 -7 -20 -77 -23 l-78 -3 2 -48 c5 -86 2 -85 169 -81 81 2 151 7 157 13 12 12 -5 119 -35 215 -39 131 -137 201 -288 209 -47 3 -105 2 -130 -2z"/>
 <path d="M965 4849 c-7 -11 7 -100 32 -204 13 -54 98 -470 110 -537 9 -48 20 -51 191 -46 176 6 237 21 288 70 60 57 69 174 22 267 -27 51 -118 120 -160 121 -31 0 -44 15 -29 33 27 33 143 255 144 277 2 24 0 25 -68 28 -62 3 -72 0 -87 -19 -10 -11 -18 -30 -18 -40 0 -10 -4 -19 -9 -19 -10 0 -81 -132 -81 -150 0 -23 -53 -80 -74 -80 -49 0 -62 28 -98 225 -6 33 -15 66 -20 73 -13 15 -134 17 -143 1z m433 -445 c36 -25 82 -94 82 -124 0 -16 -11 -37 -27 -53 -26 -23 -36 -26 -118 -28 l-90 -2 -3 29 c-1 16 -9 62 -17 102 -8 41 -12 78 -9 83 10 16 157 11 182 -7z"/>
 <path d="M2464 4846 c-3 -7 4 -60 15 -117 90 -450 131 -642 142 -655 9 -11 29 -14 78 -12 l66 3 42 85 c24 47 43 96 43 109 0 14 7 32 15 41 35 39 135 263 135 302 0 10 5 18 10 18 6 0 10 -15 10 -32 0 -38 86 -472 100 -505 9 -21 17 -23 75 -23 47 0 67 4 71 14 3 8 -9 85 -27 173 -17 87 -35 176 -39 198 -4 22 -19 90 -32 150 -14 61 -31 140 -38 177 -7 37 -18 72 -25 78 -7 6 -41 10 -76 8 l-63 -3 -43 -84 c-24 -46 -43 -88 -43 -92 0 -5 -14 -37 -30 -71 -53 -108 -120 -266 -120 -282 0 -8 -4 -18 -10 -21 -6 -4 -10 6 -10 24 0 50 -89 496 -104 520 -11 17 -135 14 -142 -3z"/>
 <path d="M3297 4853 c-11 -11 -8 -64 9 -133 8 -36 22 -99 29 -140 23 -123 105 -502 111 -511 3 -5 36 -9 75 -9 67 0 70 1 89 33 11 17 20 37 20 44 0 7 26 68 59 136 70 147 127 281 135 320 10 46 23 30 29 -36 8 -87 86 -469 99 -484 13 -16 134 -18 143 -3 4 6 -2 52 -13 103 -56 258 -119 570 -126 619 -4 25 -13 51 -21 58 -8 6 -40 10 -77 8 l-63 -3 -60 -122 c-81 -165 -81 -164 -131 -280 -24 -56 -44 -111 -44 -122 0 -11 -4 -22 -9 -25 -5 -3 -14 31 -21 77 -6 45 -18 107 -26 137 -14 56 -41 191 -54 267 -10 62 -23 73 -90 73 -31 0 -60 -3 -63 -7z"/>
 <path d="M4113 4844 c-3 -9 12 -100 35 -203 22 -102 57 -269 78 -371 20 -102 41 -191 47 -197 11 -15 133 -18 141 -4 6 9 -46 281 -84 446 -10 44 -28 134 -40 200 -12 66 -26 126 -32 133 -6 7 -35 12 -75 12 -49 0 -65 -4 -70 -16z"/>
 <path d="M4434 4845 c-3 -8 17 -124 45 -257 28 -134 63 -297 77 -363 36 -175 31 -166 111 -163 l68 3 48 95 c26 52 58 120 72 150 13 30 42 98 66 150 23 52 45 110 48 129 6 36 27 41 25 6 -2 -33 89 -506 101 -526 4 -5 35 -9 71 -9 51 0 66 4 71 16 3 10 -6 76 -21 148 -15 72 -34 167 -43 211 -9 44 -32 157 -52 250 l-37 170 -74 0 c-84 0 -70 12 -128 -115 -17 -36 -55 -119 -85 -186 -70 -152 -97 -219 -97 -244 0 -11 -4 -20 -10 -20 -5 0 -10 19 -11 43 0 47 -6 79 -43 257 -15 69 -31 152 -37 185 -6 32 -15 65 -21 72 -16 19 -137 18 -144 -2z"/>
 <path d="M6767 4663 c-10 -10 -8 -61 2 -81 6 -9 19 -46 31 -82 27 -86 75 -195 131 -300 26 -47 54 -100 64 -119 10 -21 23 -87 31 -169 14 -134 15 -136 47 -163 31 -27 129 -69 159 -69 8 0 40 -9 71 -19 58 -20 80 -15 49 11 -34 28 -71 47 -132 68 -71 24 -107 45 -120 71 -6 10 -14 76 -19 147 -10 141 -9 138 -86 262 -29 47 -68 119 -86 160 -18 41 -47 107 -64 145 -18 39 -40 87 -48 108 -17 39 -19 41 -30 30z"/>
 <path d="M6496 4622 c-4 -8 56 -62 68 -62 11 0 82 -76 91 -96 4 -10 7 -28 6 -39 -1 -11 5 -36 13 -56 8 -19 38 -116 66 -215 47 -161 53 -193 59 -316 7 -128 9 -139 35 -172 15 -20 31 -36 36 -36 5 0 29 -30 54 -67 122 -185 174 -247 259 -310 85 -63 72 -31 -49 119 -67 82 -174 240 -174 256 0 5 -20 27 -45 49 -49 46 -60 73 -52 140 11 105 -18 231 -125 538 -42 120 -67 178 -86 196 -30 29 -149 83 -156 71z"/>
 <path d="M7729 4043 c-19 -21 -41 -51 -47 -67 -7 -15 -41 -65 -76 -110 -35 -44 -77 -106 -94 -137 -36 -67 -66 -159 -51 -159 13 0 58 52 59 67 0 6 15 31 34 56 19 24 39 54 45 65 6 12 42 56 79 100 38 43 74 93 81 109 7 17 24 36 38 44 23 12 31 10 86 -20 34 -18 87 -46 117 -61 30 -15 114 -61 185 -102 241 -139 334 -176 420 -166 38 4 35 21 -5 29 -18 4 -37 12 -43 18 -6 6 -17 11 -25 11 -8 0 -33 8 -56 19 -23 10 -52 24 -66 30 -14 6 -34 17 -45 23 -128 82 -296 181 -428 252 -53 28 -79 36 -120 36 -48 0 -56 -3 -88 -37z"/>
 <path d="M7862 3762 c-30 -30 -77 -322 -54 -336 18 -11 29 18 51 124 12 58 26 115 31 128 10 22 44 30 55 12 9 -14 122 -47 190 -55 33 -4 74 -13 90 -20 17 -6 57 -22 90 -34 33 -13 69 -27 80 -31 99 -41 127 -3 32 43 -104 51 -184 81 -257 98 -140 33 -161 39 -200 64 -47 30 -83 32 -108 7z"/>
 <path d="M1925 3751 c-5 -5 -46 -12 -90 -14 -88 -5 -174 -22 -189 -37 -6 -6 -17 -10 -25 -10 -28 0 -176 -74 -261 -131 -81 -54 -211 -179 -276 -264 -89 -117 -163 -290 -196 -460 -16 -82 -21 -284 -8 -345 26 -125 34 -159 58 -230 54 -165 134 -290 269 -421 94 -92 158 -141 245 -185 29 -15 60 -33 68 -39 8 -6 56 -24 105 -38 50 -15 104 -32 120 -38 17 -7 104 -14 195 -16 141 -4 180 -2 269 16 57 12 124 28 149 37 56 18 181 80 242 119 212 134 393 380 467 633 32 110 46 302 32 442 -6 58 -14 110 -18 115 -4 6 -13 37 -20 70 -7 33 -38 111 -68 174 l-55 113 103 107 c57 58 155 158 218 222 68 71 111 121 106 128 -5 9 -89 11 -306 10 l-299 -1 -147 -156 c-82 -86 -201 -210 -265 -276 -434 -448 -568 -592 -566 -606 3 -13 42 -15 287 -18 l284 -2 75 74 c41 41 79 73 83 70 18 -11 39 -111 39 -183 0 -97 -14 -148 -71 -266 -89 -183 -296 -306 -513 -305 -112 1 -207 32 -313 103 -106 71 -177 163 -225 293 -30 80 -32 262 -4 344 41 121 112 217 221 297 103 77 159 94 325 100 l115 4 34 37 c19 20 66 71 105 113 39 41 116 124 170 183 l100 109 -22 18 c-12 9 -44 25 -70 34 -26 9 -59 23 -74 31 -14 8 -39 14 -55 14 -16 0 -33 4 -38 9 -17 16 -296 36 -310 22z"/>
 <path d="M3875 3730 c-3 -5 -23 -10 -43 -10 -20 0 -66 -10 -102 -23 -149 -52 -283 -144 -357 -242 -20 -27 -40 -52 -44 -55 -15 -11 -82 -147 -96 -195 -8 -27 -18 -59 -24 -70 -6 -13 -8 -307 -7 -795 l3 -775 263 -3 c170 -1 270 1 282 8 20 10 20 25 20 765 l0 753 33 44 c32 42 49 54 117 82 111 45 280 12 361 -70 l44 -45 5 -716 c4 -523 8 -717 16 -720 7 -2 41 27 77 64 122 127 333 348 397 416 l65 69 3 441 c3 387 1 449 -14 502 -29 107 -118 258 -195 335 -54 53 -173 150 -185 150 -10 0 -128 46 -157 62 -57 29 -446 53 -462 28z"/>
 <path d="M5285 3698 c-3 -7 -6 -377 -8 -823 l-2 -810 -185 -1 -184 -1 -243 -249 c-136 -139 -242 -256 -240 -264 2 -13 101 -15 812 -18 446 -1 864 1 930 5 l120 8 6 235 c3 129 2 245 -3 258 -7 22 -9 22 -208 22 -161 0 -204 3 -216 14 -12 12 -14 140 -16 823 l-3 808 -278 3 c-217 2 -279 0 -282 -10z"/>
 <path d="M9018 3695 c-3 -3 -41 -9 -84 -13 -44 -4 -79 -11 -79 -17 0 -6 39 -11 93 -13 50 -1 92 -6 92 -11 0 -14 -114 -60 -165 -67 -70 -9 -105 -26 -152 -70 -58 -56 -98 -77 -122 -64 -26 13 -36 -3 -15 -24 34 -34 93 -16 171 53 50 45 60 49 119 56 112 12 214 71 214 124 0 15 -5 32 -12 39 -12 12 -50 16 -60 7z"/>
 <path d="M7818 3324 c-4 -4 -5 -32 -1 -64 7 -73 -8 -142 -58 -258 -64 -151 -89 -276 -92 -461 -1 -98 2 -157 8 -158 14 -4 23 36 36 157 6 58 14 121 19 140 35 146 54 210 81 281 36 95 58 179 59 229 0 63 -35 152 -52 134z"/>
 <path d="M7311 3076 c-5 -6 -15 -32 -20 -56 -6 -25 -25 -83 -42 -130 -120 -324 -137 -385 -138 -477 -1 -90 31 -80 49 15 10 55 52 178 94 276 33 78 96 316 96 366 0 14 -28 19 -39 6z"/>
 <path d="M8020 3014 c-29 -66 -26 -113 7 -139 l26 -22 -12 -94 c-10 -78 -82 -364 -95 -377 -3 -2 -51 -9 -109 -17 -106 -13 -131 -20 -122 -35 6 -9 153 -4 230 7 49 8 50 9 56 48 7 47 38 155 49 170 15 21 32 114 37 213 6 95 4 105 -15 132 -26 35 -29 92 -5 115 19 20 67 14 95 -11 16 -16 18 -15 24 1 12 29 -32 55 -94 55 l-53 0 -19 -46z"/>
 <path d="M8153 2802 c-6 -4 -17 -91 -26 -203 -19 -247 -28 -271 -122 -325 -11 -6 -56 -32 -100 -58 -44 -25 -96 -49 -115 -52 -19 -3 -53 -19 -75 -35 -110 -80 -128 -89 -176 -89 -41 0 -50 -4 -69 -29 -23 -34 -17 -43 20 -29 14 6 50 11 80 13 58 2 78 11 149 63 25 18 68 39 96 47 28 9 78 29 111 46 237 122 244 135 252 445 4 194 1 222 -25 206z"/>
 <path d="M6975 2781 c-11 -5 -42 -11 -70 -15 -62 -9 -245 -72 -264 -91 -7 -7 -10 -18 -7 -24 8 -13 68 -15 82 -2 5 5 79 25 165 46 152 36 158 37 208 22 57 -16 66 -12 48 23 -20 38 -110 61 -162 41z"/>
 <path d="M6517 2632 c-23 -25 -13 -118 16 -149 17 -20 31 -23 89 -23 73 0 108 19 108 59 0 26 18 37 74 46 66 9 99 22 90 36 -10 16 -151 3 -180 -16 -12 -8 -24 -27 -26 -42 -2 -22 -10 -29 -41 -36 -75 -18 -97 1 -102 90 -4 54 -7 58 -28 35z"/>
 <path d="M6965 2549 c-4 -6 -11 -64 -16 -128 -5 -64 -13 -145 -18 -180 -5 -35 -7 -80 -4 -99 7 -41 61 -96 109 -112 60 -20 60 -1 -1 57 -63 60 -62 53 -36 188 14 72 3 276 -16 282 -6 2 -14 -1 -18 -8z"/>
 <path d="M6962 1916 c-42 -54 -41 -276 3 -351 46 -80 99 -105 222 -105 61 0 75 4 117 31 58 39 87 93 93 174 5 63 -6 126 -22 127 -6 0 -15 -36 -20 -79 -20 -151 -102 -220 -219 -183 -17 5 -43 12 -57 14 -69 14 -112 158 -91 305 12 85 4 105 -26 67z"/>
 </g>

</svg>