<?xml version="1.0" encoding="utf-8"?>
<!-- Generator: Adobe Illustrator 21.0.2, SVG Export Plug-In . SVG Version: 6.00 Build 0)  -->
<svg version="1.1" xmlns="http://www.w3.org/2000/svg" xmlns:xlink="http://www.w3.org/1999/xlink" x="0px" y="0px"
	 viewBox="0 0 960 652" style="enable-background:new 0 0 960 652;" xml:space="preserve">
<style type="text/css">
	.st0{fill:#0C2D56;}
	.st1{fill:#FAFAFA;}
</style>
<g id="Layer_2">
	<rect x="-9" y="-13" class="st0" width="984" height="684"/>
</g>
<g id="Layer_1">
	<g id="layer1">
		<path class="st1" d="M662,486.9c-1.9-0.5-7.2-0.6-11.8-0.2c-11.7,0.8-18-1.2-26.1-8.4c-5.2-4.6-6.1-6-6.1-8.8
			c0-4.4,2.4-6.7,6.4-6.3c3.9,0.4,3.9,2.1,0.1,2.8c-3,0.5-4.2,2.5-2.7,4.6c0.4,0.6,4.2,3.4,8.4,6.2l7.7,5.2h9
			c12.9,0,23.2,2.4,21.5,5.1C667.8,488.1,666.8,488.1,662,486.9z"/>
		<path class="st1" d="M185.7,485.4c-5.7-2.1-12.1-8.6-13.6-14c-2.1-7.7-1.5-12.7,5.4-45.9c1.9-9.3,3.7-17.6,4-18.3
			c0.3-0.9,2.4-1.2,7.2-1l6.8,0.3l0.3,3.4c0.2,1.8-0.8,8.3-2.2,14.5c-4.1,17.7-6.6,31.7-6.6,36.9c0,4.2,0.5,5.3,3.9,8.9
			c3.7,4,4,4.1,9.7,3.9c5.2-0.2,6.4-0.7,11-4.4c4.4-3.6,5.4-5.1,6.9-10.2c2-7.1,7.2-31.3,8.7-40.5c0.6-3.6,1.7-8,2.5-9.7
			c1.4-3.2,1.5-3.3,7.9-3.3c4.6,0,6.6,0.4,7,1.4c0.5,1.2-0.8,8.1-5,28.6c-0.5,2.6-1.3,6.1-4.7,21.5c-2.3,10.2-5.1,15.6-10.6,20.6
			c-6.6,6-11.5,7.8-23.3,8.4C192.7,486.9,189.5,486.7,185.7,485.4z"/>
		<path class="st1" d="M552,486.1c-8.8-1.3-16.7-7.6-20.7-16.7c-2.2-5.1-2.2-22.4,0-30.7c6.5-23.6,27.7-36.7,53.7-33.3
			c11.2,1.5,13,2.5,13,7.7c0,2.2-0.5,4.9-1.1,6c-1.1,2.2-3.8,2.1-14.1-0.3c-3.8-0.9-6-0.8-12.2,0.7c-12,2.8-18.4,8.5-23.1,20.6
			c-4.8,12.2-2.6,27,4.7,31.3c3,1.8,11.8,2.4,16,1c5.9-1.8,11.8-9,11.8-14.3c0-1.8-0.7-2-7.7-2.3l-7.8-0.3l0.2-4.8
			c0.5-8.6,0.2-8.5,16.9-8.1c8.1,0.2,15.1,0.7,15.7,1.3c1.2,1.2-0.5,11.9-3.5,21.5c-3.9,13.1-13.7,20.1-28.8,20.9
			C560.3,486.6,554.5,486.5,552,486.1z"/>
		<path class="st1" d="M96.5,484.9c-0.7-1.1,0.7-10,3.2-20.4c1.3-5.4,9.8-47,11-53.7c0.9-4.8,2-5.1,19.1-4.6
			c17.6,0.6,23.7,2.1,28.8,7c6,5.7,6.9,17.4,2.2,26.7c-2.7,5.1-11.8,12-16,12.1c-3.1,0-4.4,1.5-2.9,3.3c2.7,3.3,14.3,25.5,14.4,27.7
			c0.2,2.4,0,2.5-6.8,2.8c-6.2,0.3-7.2,0-8.7-1.9c-1-1.1-1.8-3-1.8-4s-0.4-1.9-0.9-1.9c-1,0-8.1-13.2-8.1-15c0-2.3-5.3-8-7.4-8
			c-4.9,0-6.2,2.8-9.8,22.5c-0.6,3.3-1.5,6.6-2,7.3C109.5,486.3,97.4,486.5,96.5,484.9z M139.8,440.4c3.6-2.5,8.2-9.4,8.2-12.4
			c0-1.6-1.1-3.7-2.7-5.3c-2.6-2.3-3.6-2.6-11.8-2.8l-9-0.2l-0.3,2.9c-0.1,1.6-0.9,6.2-1.7,10.2c-0.8,4.1-1.2,7.8-0.9,8.3
			C122.6,442.7,137.3,442.2,139.8,440.4z"/>
		<path class="st1" d="M246.4,484.6c-0.3-0.7,0.4-6,1.5-11.7c9-45,13.1-64.2,14.2-65.5c0.9-1.1,2.9-1.4,7.8-1.2l6.6,0.3l4.2,8.5
			c2.4,4.7,4.3,9.6,4.3,10.9c0,1.4,0.7,3.2,1.5,4.1c3.5,3.9,13.5,26.3,13.5,30.2c0,1,0.5,1.8,1,1.8c0.6,0,1-1.5,1-3.2
			c0-3.8,8.6-47.2,10-50.5c0.9-2.1,1.7-2.3,7.5-2.3c4.7,0,6.7,0.4,7.1,1.4c0.3,0.8-0.9,8.5-2.7,17.3c-1.7,8.7-3.5,17.6-3.9,19.8
			c-0.4,2.2-1.9,9-3.2,15c-1.4,6.1-3.1,14-3.8,17.7c-0.7,3.7-1.8,7.2-2.5,7.8c-0.7,0.6-4.1,1-7.6,0.8l-6.3-0.3l-4.3-8.4
			c-2.4-4.6-4.3-8.8-4.3-9.2c0-0.5-1.4-3.7-3-7.1c-5.3-10.8-12-26.6-12-28.2c0-0.8-0.4-1.8-1-2.1c-0.6-0.4-1,0.6-1,2.4
			c0,5-8.9,49.6-10.4,52C259.5,486.6,247.1,486.3,246.4,484.6z"/>
		<path class="st1" d="M329.7,485.3c-1.1-1.1-0.8-6.4,0.9-13.3c0.8-3.6,2.2-9.9,2.9-14c2.3-12.3,10.5-50.2,11.1-51.1
			c0.3-0.5,3.6-0.9,7.5-0.9c6.7,0,7,0.1,8.9,3.3c1.1,1.7,2,3.7,2,4.4c0,0.7,2.6,6.8,5.9,13.6c7,14.7,12.7,28.1,13.5,32
			c1,4.6,2.3,3,2.9-3.6c0.8-8.7,8.6-46.9,9.9-48.4c1.3-1.6,13.4-1.8,14.3-0.3c0.4,0.6-0.2,5.2-1.3,10.3c-5.6,25.8-11.9,57-12.6,61.9
			c-0.4,2.5-1.3,5.1-2.1,5.8c-0.8,0.6-4,1-7.7,0.8l-6.3-0.3l-6-12.2c-8.1-16.5-8.1-16.4-13.1-28c-2.4-5.6-4.4-11.1-4.4-12.2
			s-0.4-2.2-0.9-2.5s-1.4,3.1-2.1,7.7c-0.6,4.5-1.8,10.7-2.6,13.7c-1.4,5.6-4.1,19.1-5.4,26.7c-1,6.2-2.3,7.3-9,7.3
			C332.9,486,330,485.7,329.7,485.3z"/>
		<path class="st1" d="M411.3,484.4c-0.3-0.9,1.2-10,3.5-20.3c2.2-10.2,5.7-26.9,7.8-37.1c2-10.2,4.1-19.1,4.7-19.7
			c1.1-1.5,13.3-1.8,14.1-0.4c0.6,0.9-4.6,28.1-8.4,44.6c-1,4.4-2.8,13.4-4,20c-1.2,6.6-2.6,12.6-3.2,13.3c-0.6,0.7-3.5,1.2-7.5,1.2
			C413.4,486,411.8,485.6,411.3,484.4z"/>
		<path class="st1" d="M443.4,484.5c-0.3-0.8,1.7-12.4,4.5-25.7c2.8-13.4,6.3-29.7,7.7-36.3c3.6-17.5,3.1-16.6,11.1-16.3l6.8,0.3
			l4.8,9.5c2.6,5.2,5.8,12,7.2,15c1.3,3,4.2,9.8,6.6,15c2.3,5.2,4.5,11,4.8,12.9c0.6,3.6,2.7,4.1,2.5,0.6
			c-0.2-3.3,8.9-50.6,10.1-52.6c0.4-0.5,3.5-0.9,7.1-0.9c5.1,0,6.6,0.4,7.1,1.6c0.3,1-0.6,7.6-2.1,14.8c-1.5,7.2-3.4,16.7-4.3,21.1
			c-0.9,4.4-3.2,15.7-5.2,25l-3.7,17H501c-8.4,0-7,1.2-12.8-11.5c-1.7-3.6-5.5-11.9-8.5-18.6c-7-15.2-9.7-21.9-9.7-24.4
			c0-1.1-0.4-2-1-2c-0.5,0-1,1.9-1.1,4.3c0,4.7-0.6,7.9-4.3,25.7c-1.5,6.9-3.1,15.2-3.7,18.5c-0.6,3.2-1.5,6.5-2.1,7.2
			C456.2,486.6,444.1,486.5,443.4,484.5z"/>
		<path class="st1" d="M676.7,466.3c-1-1-0.8-6.1,0.2-8.1c0.6-0.9,1.9-4.6,3.1-8.2c2.7-8.6,7.5-19.5,13.1-30
			c2.6-4.7,5.4-10,6.4-11.9c1-2.1,2.3-8.7,3.1-16.9c1.4-13.4,1.5-13.6,4.7-16.3c3.1-2.7,12.9-6.9,15.9-6.9c0.8,0,4-0.9,7.1-1.9
			c5.8-2,8-1.5,4.9,1.1c-3.4,2.8-7.1,4.7-13.2,6.8c-7.1,2.4-10.7,4.5-12,7.1c-0.6,1-1.4,7.6-1.9,14.7c-1,14.1-0.9,13.8-8.6,26.2
			c-2.9,4.7-6.8,11.9-8.6,16s-4.7,10.7-6.4,14.5c-1.8,3.9-4,8.7-4.8,10.8C678,467.2,677.8,467.4,676.7,466.3z"/>
		<path class="st1" d="M649.6,462.2c-0.4-0.8,5.6-6.2,6.8-6.2c1.1,0,8.2-7.6,9.1-9.6c0.4-1,0.7-2.8,0.6-3.9
			c-0.1-1.1,0.5-3.6,1.3-5.6c0.8-1.9,3.8-11.6,6.6-21.5c4.7-16.1,5.3-19.3,5.9-31.6c0.7-12.8,0.9-13.9,3.5-17.2
			c1.5-2,3.1-3.6,3.6-3.6s2.9-3,5.4-6.7c12.2-18.5,17.4-24.7,25.9-31c8.5-6.3,7.2-3.1-4.9,11.9c-6.7,8.2-17.4,24-17.4,25.6
			c0,0.5-2,2.7-4.5,4.9c-4.9,4.6-6,7.3-5.2,14c1.1,10.5-1.8,23.1-12.5,53.8c-4.2,12-6.7,17.8-8.6,19.6
			C662.2,458,650.3,463.4,649.6,462.2z"/>
		<path class="st1" d="M772.9,404.3c-1.9-2.1-4.1-5.1-4.7-6.7c-0.7-1.5-4.1-6.5-7.6-11c-3.5-4.4-7.7-10.6-9.4-13.7
			c-3.6-6.7-6.6-15.9-5.1-15.9c1.3,0,5.8,5.2,5.9,6.7c0,0.6,1.5,3.1,3.4,5.6c1.9,2.4,3.9,5.4,4.5,6.5c0.6,1.2,4.2,5.6,7.9,10
			c3.8,4.3,7.4,9.3,8.1,10.9c0.7,1.7,2.4,3.6,3.8,4.4c2.3,1.2,3.1,1,8.6-2c3.4-1.8,8.7-4.6,11.7-6.1s11.4-6.1,18.5-10.2
			c24.1-13.9,33.4-17.6,42-16.6c3.8,0.4,3.5,2.1-0.5,2.9c-1.8,0.4-3.7,1.2-4.3,1.8c-0.6,0.6-1.7,1.1-2.5,1.1s-3.3,0.8-5.6,1.9
			c-2.3,1-5.2,2.4-6.6,3c-1.4,0.6-3.4,1.7-4.5,2.3c-12.8,8.2-29.6,18.1-42.8,25.2c-5.3,2.8-7.9,3.6-12,3.6
			C776.9,408,776.1,407.7,772.9,404.3z"/>
		<path class="st1" d="M786.2,376.2c-3-3-7.7-32.2-5.4-33.6c1.8-1.1,2.9,1.8,5.1,12.4c1.2,5.8,2.6,11.5,3.1,12.8
			c1,2.2,4.4,3,5.5,1.2c0.9-1.4,12.2-4.7,19-5.5c3.3-0.4,7.4-1.3,9-2c1.7-0.6,5.7-2.2,9-3.4c3.3-1.3,6.9-2.7,8-3.1
			c9.9-4.1,12.7-0.3,3.2,4.3c-10.4,5.1-18.4,8.1-25.7,9.8c-14,3.3-16.1,3.9-20,6.4C792.3,378.5,788.7,378.7,786.2,376.2z"/>
		<path class="st1" d="M192.5,375.1c-0.5-0.5-4.6-1.2-9-1.4c-8.8-0.5-17.4-2.2-18.9-3.7c-0.6-0.6-1.7-1-2.5-1
			c-2.8,0-17.6-7.4-26.1-13.1c-8.1-5.4-21.1-17.9-27.6-26.4c-8.9-11.7-16.3-29-19.6-46c-1.6-8.2-2.1-28.4-0.8-34.5
			c2.6-12.5,3.4-15.9,5.8-23c5.4-16.5,13.4-29,26.9-42.1c9.4-9.2,15.8-14.1,24.5-18.5c2.9-1.5,6-3.3,6.8-3.9
			c0.8-0.6,5.6-2.4,10.5-3.8c5-1.5,10.4-3.2,12-3.8c1.7-0.7,10.4-1.4,19.5-1.6c14.1-0.4,18-0.2,26.9,1.6c5.7,1.2,12.4,2.8,14.9,3.7
			c5.6,1.8,18.1,8,24.2,11.9c21.2,13.4,39.3,38,46.7,63.3c3.2,11,4.6,30.2,3.2,44.2c-0.6,5.8-1.4,11-1.8,11.5c-0.4,0.6-1.3,3.7-2,7
			c-0.7,3.3-3.8,11.1-6.8,17.4l-5.5,11.3l10.3,10.7c5.7,5.8,15.5,15.8,21.8,22.2c6.8,7.1,11.1,12.1,10.6,12.8
			c-0.5,0.9-8.9,1.1-30.6,1l-29.9-0.1l-14.7-15.6c-8.2-8.6-20.1-21-26.5-27.6c-43.4-44.8-56.8-59.2-56.6-60.6
			c0.3-1.3,4.2-1.5,28.7-1.8l28.4-0.2l7.5,7.4c4.1,4.1,7.9,7.3,8.3,7c1.8-1.1,3.9-11.1,3.9-18.3c0-9.7-1.4-14.8-7.1-26.6
			c-8.9-18.3-29.6-30.6-51.3-30.5c-11.2,0.1-20.7,3.2-31.3,10.3s-17.7,16.3-22.5,29.3c-3,8-3.2,26.2-0.4,34.4
			c4.1,12.1,11.2,21.7,22.1,29.7c10.3,7.7,15.9,9.4,32.5,10l11.5,0.4l3.4,3.7c1.9,2,6.6,7.1,10.5,11.3c3.9,4.1,11.6,12.4,17,18.3
			l10,10.9l-2.2,1.8c-1.2,0.9-4.4,2.5-7,3.4c-2.6,0.9-5.9,2.3-7.4,3.1c-1.4,0.8-3.9,1.4-5.5,1.4s-3.3,0.4-3.8,0.9
			C221.8,374.5,193.9,376.5,192.5,375.1z"/>
		<path class="st1" d="M387.5,373c-0.3-0.5-2.3-1-4.3-1s-6.6-1-10.2-2.3c-14.9-5.2-28.3-14.4-35.7-24.2c-2-2.7-4-5.2-4.4-5.5
			c-1.5-1.1-8.2-14.7-9.6-19.5c-0.8-2.7-1.8-5.9-2.4-7c-0.6-1.3-0.8-30.7-0.7-79.5l0.3-77.5l26.3-0.3c17-0.1,27,0.1,28.2,0.8
			c2,1,2,2.5,2,76.5v75.3l3.3,4.4c3.2,4.2,4.9,5.4,11.7,8.2c11.1,4.5,28,1.2,36.1-7l4.4-4.5l0.5-71.6c0.4-52.3,0.8-71.7,1.6-72
			c0.7-0.2,4.1,2.7,7.7,6.4c12.2,12.7,33.3,34.8,39.7,41.6l6.5,6.9l0.3,44.1c0.3,38.7,0.1,44.9-1.4,50.2
			c-2.9,10.7-11.8,25.8-19.5,33.5c-5.4,5.3-17.3,15-18.5,15c-1,0-12.8,4.6-15.7,6.2C428,373.1,389.1,375.5,387.5,373z"/>
		<path class="st1" d="M528.5,369.8c-0.3-0.7-0.6-37.7-0.8-82.3l-0.2-81l-18.5-0.1l-18.4-0.1l-24.3-24.9
			c-13.6-13.9-24.2-25.6-24-26.4c0.2-1.3,10.1-1.5,81.2-1.8c44.6-0.1,86.4,0.1,93,0.5l12,0.8l0.6,23.5c0.3,12.9,0.2,24.5-0.3,25.8
			c-0.7,2.2-0.9,2.2-20.8,2.2c-16.1,0-20.4,0.3-21.6,1.4c-1.2,1.2-1.4,14-1.6,82.3l-0.3,80.8l-27.8,0.3
			C535,371,528.8,370.8,528.5,369.8z"/>
		<path class="st1" d="M901.8,369.5c-0.3-0.3-4.1-0.9-8.4-1.3c-4.4-0.4-7.9-1.1-7.9-1.7s3.9-1.1,9.3-1.3c5-0.1,9.2-0.6,9.2-1.1
			c0-1.4-11.4-6-16.5-6.7c-7-0.9-10.5-2.6-15.2-7c-5.8-5.6-9.8-7.7-12.2-6.4c-2.6,1.3-3.6-0.3-1.5-2.4c3.4-3.4,9.3-1.6,17.1,5.3
			c5,4.5,6,4.9,11.9,5.6c11.2,1.2,21.4,7.1,21.4,12.4c0,1.5-0.5,3.2-1.2,3.9C906.6,370,902.8,370.4,901.8,369.5z"/>
		<path class="st1" d="M781.8,332.4c-0.4-0.4-0.5-3.2-0.1-6.4c0.7-7.3-0.8-14.2-5.8-25.8c-6.4-15.1-8.9-27.6-9.2-46.1
			c-0.1-9.8,0.2-15.7,0.8-15.8c1.4-0.4,2.3,3.6,3.6,15.7c0.6,5.8,1.4,12.1,1.9,14c3.5,14.6,5.4,21,8.1,28.1
			c3.6,9.5,5.8,17.9,5.9,22.9C787,325.3,783.5,334.2,781.8,332.4z"/>
		<path class="st1" d="M731.1,307.6c-0.5-0.6-1.5-3.2-2-5.6c-0.6-2.5-2.5-8.3-4.2-13c-12-32.4-13.7-38.5-13.8-47.7
			c-0.1-9,3.1-8,4.9,1.5c1,5.5,5.2,17.8,9.4,27.6c3.3,7.8,9.6,31.6,9.6,36.6C735,308.4,732.2,308.9,731.1,307.6z"/>
		<path class="st1" d="M802,301.4c-2.9-6.6-2.6-11.3,0.7-13.9l2.6-2.2l-1.2-9.4c-1-7.8-8.2-36.4-9.5-37.7c-0.3-0.2-5.1-0.9-10.9-1.7
			c-10.6-1.3-13.1-2-12.2-3.5c0.6-0.9,15.3-0.4,23,0.7c4.9,0.8,5,0.9,5.6,4.8c0.7,4.7,3.8,15.5,4.9,17c1.5,2.1,3.2,11.4,3.7,21.3
			c0.6,9.5,0.4,10.5-1.5,13.2c-2.6,3.5-2.9,9.2-0.5,11.5c1.9,2,6.7,1.4,9.5-1.1c1.6-1.6,1.8-1.5,2.4,0.1c1.2,2.9-3.2,5.5-9.4,5.5
			h-5.3L802,301.4z"/>
		<path class="st1" d="M815.3,280.2c-0.6-0.4-1.7-9.1-2.6-20.3c-1.9-24.7-2.8-27.1-12.2-32.5c-1.1-0.6-5.6-3.2-10-5.8
			c-4.4-2.5-9.6-4.9-11.5-5.2c-1.9-0.3-5.3-1.9-7.5-3.5c-11-8-12.8-8.9-17.6-8.9c-4.1,0-5-0.4-6.9-2.9c-2.3-3.4-1.7-4.3,2-2.9
			c1.4,0.6,5,1.1,8,1.3c5.8,0.2,7.8,1.1,14.9,6.3c2.5,1.8,6.8,3.9,9.6,4.7c2.8,0.9,7.8,2.9,11.1,4.6c23.7,12.2,24.4,13.5,25.2,44.5
			C818.2,279,817.9,281.8,815.3,280.2z"/>
		<path class="st1" d="M697.5,278.1c-1.1-0.5-4.2-1.1-7-1.5c-6.2-0.9-24.5-7.2-26.4-9.1c-0.7-0.7-1-1.8-0.7-2.4
			c0.8-1.3,6.8-1.5,8.2-0.2c0.5,0.5,7.9,2.5,16.5,4.6c15.2,3.6,15.8,3.7,20.8,2.2c5.7-1.6,6.6-1.2,4.8,2.3
			C711.7,277.8,702.7,280.1,697.5,278.1z"/>
		<path class="st1" d="M651.7,263.2c-2.3-2.5-1.3-11.8,1.6-14.9c1.7-2,3.1-2.3,8.9-2.3c7.3,0,10.8,1.9,10.8,5.9
			c0,2.6,1.8,3.7,7.4,4.6c6.6,0.9,9.9,2.2,9,3.6c-1,1.6-15.1,0.3-18-1.6c-1.2-0.8-2.4-2.7-2.6-4.2c-0.2-2.2-1-2.9-4.1-3.6
			c-7.5-1.8-9.7,0.1-10.2,9C654.1,265.1,653.8,265.5,651.7,263.2z"/>
		<path class="st1" d="M696.5,254.9c-0.4-0.6-1.1-6.4-1.6-12.8c-0.5-6.4-1.3-14.5-1.8-18s-0.7-8-0.4-9.9c0.7-4.1,6.1-9.6,10.9-11.2
			c6-2,6-0.1-0.1,5.7c-6.3,6-6.2,5.3-3.6,18.8c1.4,7.2,0.3,27.6-1.6,28.2C697.7,255.9,696.9,255.6,696.5,254.9z"/>
		<path class="st1" d="M696.2,191.6c-4.2-5.4-4.1-27.6,0.3-35.1c4.6-8,9.9-10.5,22.2-10.5c6.1,0,7.5,0.4,11.7,3.1
			c5.8,3.9,8.7,9.3,9.3,17.4c0.5,6.3-0.6,12.6-2.2,12.7c-0.6,0-1.5-3.6-2-7.9c-2-15.1-10.2-22-21.9-18.3c-1.7,0.5-4.3,1.2-5.7,1.4
			c-6.9,1.4-11.2,15.8-9.1,30.5C700,193.4,699.2,195.4,696.2,191.6z"/>
	</g>
</g>
</svg>
